<svg width="1245" height="1212" viewBox="0 0 1245 1212" fill="none" xmlns="http://www.w3.org/2000/svg">
<path d="M620.093 0C277.669 0 0 277.62 0 620.093C0 894.071 177.675 1126.51 424.059 1208.5C455.048 1214.24 466.428 1195.05 466.428 1178.67C466.428 1163.89 465.849 1115.03 465.586 1063.22C293.071 1100.73 256.669 990.057 256.669 990.057C228.462 918.382 187.82 899.328 187.82 899.328C131.561 860.84 192.061 861.628 192.061 861.628C254.33 866.005 287.118 925.531 287.118 925.531C342.424 1020.33 432.18 992.922 467.566 977.082C473.129 936.999 489.202 909.648 506.934 894.163C369.206 878.479 224.416 825.309 224.416 587.708C224.416 520.011 248.64 464.691 288.31 421.267C281.871 405.646 260.648 342.579 294.316 257.165C294.316 257.165 346.387 240.499 464.886 320.729C514.346 306.985 567.394 300.099 620.093 299.865C672.791 300.099 725.879 306.985 775.436 320.729C893.793 240.499 945.792 257.165 945.792 257.165C979.543 342.579 958.31 405.646 951.871 421.267C991.628 464.691 1015.69 520.006 1015.69 587.708C1015.69 825.873 870.625 878.318 732.546 893.667C754.786 912.911 774.604 950.65 774.604 1008.5C774.604 1091.47 773.884 1158.24 773.884 1178.67C773.884 1195.17 785.045 1214.51 816.482 1208.42C1062.73 1126.33 1240.18 893.978 1240.18 620.093C1240.18 277.62 962.55 0 620.093 0Z" fill="#161614"/>
<path d="M232.246 883.337C230.884 886.416 226.03 887.34 221.619 885.229C217.121 883.206 214.592 879.004 216.051 875.911C217.388 872.74 222.242 871.855 226.731 873.985C231.239 876.003 233.807 880.244 232.246 883.337ZM262.748 910.552C259.791 913.295 254.009 912.021 250.084 907.688C246.028 903.364 245.269 897.587 248.27 894.8C251.319 892.062 256.927 893.341 260.992 897.669C265.048 902.041 265.836 907.785 262.743 910.557M283.675 945.373C279.872 948.014 273.656 945.539 269.819 940.024C266.021 934.513 266.021 927.899 269.902 925.249C273.754 922.598 279.872 924.982 283.762 930.453C287.556 936.06 287.556 942.674 283.67 945.378M319.06 985.704C315.661 989.449 308.424 988.447 303.123 983.331C297.705 978.332 296.193 971.236 299.602 967.487C303.04 963.732 310.321 964.787 315.661 969.86C321.044 974.85 322.683 981.999 319.06 985.704ZM364.794 999.322C363.301 1004.18 356.327 1006.38 349.305 1004.32C342.292 1002.2 337.701 996.506 339.116 991.599C340.575 986.711 347.578 984.411 354.654 986.619C361.658 988.734 366.253 994.381 364.794 999.322ZM416.851 1005.09C417.026 1010.21 411.068 1014.45 403.696 1014.54C396.279 1014.7 390.283 1010.57 390.205 1005.54C390.205 1000.37 396.026 996.17 403.438 996.049C410.811 995.903 416.851 1000.01 416.851 1005.09ZM467.983 1003.13C468.869 1008.12 463.743 1013.25 456.423 1014.61C449.226 1015.92 442.563 1012.85 441.644 1007.9C440.749 1002.78 445.972 997.663 453.155 996.336C460.489 995.061 467.05 998.062 467.983 1003.13Z" fill="#161614"/>
</svg>
