<svg width="1094" height="1094" viewBox="0 0 1094 1094" fill="none" xmlns="http://www.w3.org/2000/svg">
<g clip-path="url(#clip0_12_759)">
<path d="M364.719 547C364.719 446.304 446.327 364.652 547.023 364.652C647.72 364.652 729.371 446.304 729.371 547C729.371 647.696 647.72 729.348 547.023 729.348C446.327 729.348 364.719 647.696 364.719 547ZM266.145 547C266.145 702.129 391.894 827.878 547.023 827.878C702.153 827.878 827.901 702.129 827.901 547C827.901 391.871 702.153 266.122 547.023 266.122C391.894 266.122 266.145 391.871 266.145 547ZM773.381 254.985C773.376 267.968 777.22 280.66 784.429 291.457C791.637 302.255 801.885 310.672 813.877 315.645C825.869 320.618 839.067 321.923 851.801 319.395C864.535 316.868 876.233 310.621 885.417 301.444C894.6 292.268 900.857 280.575 903.394 267.843C905.932 255.111 904.638 241.912 899.674 229.916C894.711 217.92 886.302 207.665 875.51 200.448C864.719 193.231 852.029 189.377 839.047 189.371H839.021C821.619 189.38 804.932 196.294 792.624 208.597C780.317 220.899 773.396 237.583 773.381 254.985ZM326.035 992.245C272.705 989.816 243.718 980.933 224.455 973.428C198.917 963.486 180.695 951.644 161.537 932.512C142.379 913.381 130.52 895.176 120.622 869.638C113.112 850.384 104.229 821.388 101.805 768.058C99.153 710.4 98.6235 693.08 98.6235 547.004C98.6235 400.929 99.1967 383.657 101.805 325.951C104.233 272.62 113.182 243.682 120.622 224.371C130.564 198.832 142.405 180.611 161.537 161.453C180.669 142.294 198.873 130.435 224.455 120.537C243.71 113.028 272.705 104.144 326.035 101.72C383.694 99.0683 401.014 98.5388 547.023 98.5388C693.033 98.5388 710.371 99.112 768.077 101.72C821.407 104.149 850.346 113.098 869.657 120.537C895.195 130.435 913.417 142.321 932.575 161.453C951.733 180.584 963.549 198.832 973.491 224.371C981 243.625 989.883 272.62 992.308 325.951C994.96 383.657 995.489 400.929 995.489 547.004C995.489 693.08 994.96 710.352 992.308 768.058C989.879 821.388 980.952 850.375 973.491 869.638C963.549 895.176 951.707 913.398 932.575 932.512C913.443 951.627 895.195 963.486 869.657 973.428C850.403 980.937 821.407 989.821 768.077 992.245C710.419 994.897 693.099 995.426 547.023 995.426C400.948 995.426 383.676 994.897 326.035 992.245ZM321.506 3.31263C263.275 5.96449 223.484 15.1978 188.734 28.7197C152.746 42.6835 122.28 61.4172 91.8363 91.8129C61.3925 122.209 42.7069 152.722 28.7431 188.711C15.2213 223.482 5.98793 263.251 3.33607 321.483C0.640454 379.806 0.0234375 398.452 0.0234375 547C0.0234375 695.548 0.640454 714.194 3.33607 772.517C5.98793 830.753 15.2213 870.518 28.7431 905.289C42.7069 941.256 61.3968 971.805 91.8363 1002.19C122.276 1032.57 152.746 1051.28 188.734 1065.28C223.55 1078.8 263.275 1088.04 321.506 1090.69C379.86 1093.34 398.476 1094 547.023 1094C695.571 1094 714.217 1093.38 772.541 1090.69C830.776 1088.04 870.541 1078.8 905.313 1065.28C941.279 1051.28 971.767 1032.58 1002.21 1002.19C1032.65 971.791 1051.3 941.256 1065.3 905.289C1078.83 870.518 1088.1 830.749 1090.71 772.517C1093.36 714.15 1093.98 695.548 1093.98 547C1093.98 398.452 1093.36 379.806 1090.71 321.483C1088.06 263.247 1078.83 223.46 1065.3 188.711C1051.3 152.744 1032.61 122.257 1002.21 91.8129C971.815 61.369 941.279 42.6835 905.357 28.7197C870.541 15.1978 830.772 5.92073 772.584 3.31263C714.261 0.660776 695.615 0 547.067 0C398.519 0 379.86 0.617016 321.506 3.31263Z" fill="url(#paint0_radial_12_759)"/>
<path d="M364.719 547C364.719 446.304 446.327 364.652 547.023 364.652C647.72 364.652 729.371 446.304 729.371 547C729.371 647.696 647.72 729.348 547.023 729.348C446.327 729.348 364.719 647.696 364.719 547ZM266.145 547C266.145 702.129 391.894 827.878 547.023 827.878C702.153 827.878 827.901 702.129 827.901 547C827.901 391.871 702.153 266.122 547.023 266.122C391.894 266.122 266.145 391.871 266.145 547ZM773.381 254.985C773.376 267.968 777.22 280.66 784.429 291.457C791.637 302.255 801.885 310.672 813.877 315.645C825.869 320.618 839.067 321.923 851.801 319.395C864.535 316.868 876.233 310.621 885.417 301.444C894.6 292.268 900.857 280.575 903.394 267.843C905.932 255.111 904.638 241.912 899.674 229.916C894.711 217.92 886.302 207.665 875.51 200.448C864.719 193.231 852.029 189.377 839.047 189.371H839.021C821.619 189.38 804.932 196.294 792.624 208.597C780.317 220.899 773.396 237.583 773.381 254.985ZM326.035 992.245C272.705 989.816 243.718 980.933 224.455 973.428C198.917 963.486 180.695 951.644 161.537 932.512C142.379 913.381 130.52 895.176 120.622 869.638C113.112 850.384 104.229 821.388 101.805 768.058C99.153 710.4 98.6235 693.08 98.6235 547.004C98.6235 400.929 99.1967 383.657 101.805 325.951C104.233 272.62 113.182 243.682 120.622 224.371C130.564 198.832 142.405 180.611 161.537 161.453C180.669 142.294 198.873 130.435 224.455 120.537C243.71 113.028 272.705 104.144 326.035 101.72C383.694 99.0683 401.014 98.5388 547.023 98.5388C693.033 98.5388 710.371 99.112 768.077 101.72C821.407 104.149 850.346 113.098 869.657 120.537C895.195 130.435 913.417 142.321 932.575 161.453C951.733 180.584 963.549 198.832 973.491 224.371C981 243.625 989.883 272.62 992.308 325.951C994.96 383.657 995.489 400.929 995.489 547.004C995.489 693.08 994.96 710.352 992.308 768.058C989.879 821.388 980.952 850.375 973.491 869.638C963.549 895.176 951.707 913.398 932.575 932.512C913.443 951.627 895.195 963.486 869.657 973.428C850.403 980.937 821.407 989.821 768.077 992.245C710.419 994.897 693.099 995.426 547.023 995.426C400.948 995.426 383.676 994.897 326.035 992.245ZM321.506 3.31263C263.275 5.96449 223.484 15.1978 188.734 28.7197C152.746 42.6835 122.28 61.4172 91.8363 91.8129C61.3925 122.209 42.7069 152.722 28.7431 188.711C15.2213 223.482 5.98793 263.251 3.33607 321.483C0.640454 379.806 0.0234375 398.452 0.0234375 547C0.0234375 695.548 0.640454 714.194 3.33607 772.517C5.98793 830.753 15.2213 870.518 28.7431 905.289C42.7069 941.256 61.3968 971.805 91.8363 1002.19C122.276 1032.57 152.746 1051.28 188.734 1065.28C223.55 1078.8 263.275 1088.04 321.506 1090.69C379.86 1093.34 398.476 1094 547.023 1094C695.571 1094 714.217 1093.38 772.541 1090.69C830.776 1088.04 870.541 1078.8 905.313 1065.28C941.279 1051.28 971.767 1032.58 1002.21 1002.19C1032.65 971.791 1051.3 941.256 1065.3 905.289C1078.83 870.518 1088.1 830.749 1090.71 772.517C1093.36 714.15 1093.98 695.548 1093.98 547C1093.98 398.452 1093.36 379.806 1090.71 321.483C1088.06 263.247 1078.83 223.46 1065.3 188.711C1051.3 152.744 1032.61 122.257 1002.21 91.8129C971.815 61.369 941.279 42.6835 905.357 28.7197C870.541 15.1978 830.772 5.92073 772.584 3.31263C714.261 0.660776 695.615 0 547.067 0C398.519 0 379.86 0.617016 321.506 3.31263Z" fill="url(#paint1_radial_12_759)"/>
</g>
<defs>
<radialGradient id="paint0_radial_12_759" cx="0" cy="0" r="1" gradientUnits="userSpaceOnUse" gradientTransform="translate(145.368 1099.17) scale(1428.13 1428.13)">
<stop offset="0.09" stop-color="#FA8F21"/>
<stop offset="0.78" stop-color="#D82D7E"/>
</radialGradient>
<radialGradient id="paint1_radial_12_759" cx="0" cy="0" r="1" gradientUnits="userSpaceOnUse" gradientTransform="translate(663.486 1148.18) scale(1125.56 1125.56)">
<stop offset="0.64" stop-color="#8C3AAA" stop-opacity="0"/>
<stop offset="1" stop-color="#8C3AAA"/>
</radialGradient>
<clipPath id="clip0_12_759">
<rect width="1094" height="1094" fill="white"/>
</clipPath>
</defs>
</svg>
