<svg width="1103" height="1107" viewBox="0 0 1103 1107" fill="none" xmlns="http://www.w3.org/2000/svg">
<g clip-path="url(#clip0_12_755)">
<path d="M0 81.1944C0 37.5997 36.4969 2.21405 81.487 2.21405H1021.09C1066.09 2.21405 1102.57 37.5997 1102.57 81.1944V1025.82C1102.57 1069.43 1066.09 1104.79 1021.09 1104.79H81.487C36.5012 1104.79 0 1069.43 0 1025.83V81.1815V81.1944Z" fill="#006699"/>
<path d="M335.062 924.921V428.539H170.072V924.921H335.079H335.062ZM252.601 360.779C310.125 360.779 345.937 322.662 345.937 275.028C344.86 226.308 310.125 189.255 253.695 189.255C197.227 189.255 160.347 226.308 160.347 275.023C160.347 322.658 196.146 360.774 251.52 360.774H252.589L252.601 360.779ZM426.386 924.921H591.362V647.749C591.362 632.933 592.439 618.078 596.798 607.496C608.719 577.843 635.866 547.148 681.455 547.148C741.14 547.148 765.03 592.663 765.03 659.399V924.921H930.003V640.311C930.003 487.85 848.619 416.902 740.072 416.902C651.078 416.902 611.992 466.643 590.277 500.521H591.375V428.557H426.394C428.548 475.123 426.381 924.938 426.381 924.938L426.386 924.921Z" fill="white"/>
</g>
<defs>
<clipPath id="clip0_12_755">
<rect width="1102.57" height="1107" fill="white"/>
</clipPath>
</defs>
</svg>
