<svg xmlns="http://www.w3.org/2000/svg" enable-background="new 0 0 24 24" viewBox="0 0 24 24" id="swift"><path fill="#E94E36" d="M14.748,1.375c2.412,3.236,3.365,7.085,2.525,10.544c-0.057,0.278-0.168,0.613-0.281,0.892c-0.178-0.099-0.325-0.19-0.465-0.29l0.015,0.011c0,0-5.439-3.347-11.269-9.205c-0.169-0.167,3.139,4.685,6.84,8.535c-1.738-1.004-6.673-4.518-9.758-7.364C2.693,5.112,3.197,5.726,3.701,6.34c2.58,3.292,5.945,7.308,9.983,10.375c-2.86,1.731-6.843,1.842-10.88,0C1.794,16.27,0.954,15.712,0,15.042c1.682,2.622,4.318,5.021,7.459,6.304c3.757,1.619,7.57,1.508,10.318,0h0.057c0.112-0.056,0.225-0.111,0.336-0.223c1.346-0.67,3.982-1.395,5.44,1.394c0.391,0.781,1.121-2.845-1.626-6.193h-0.001c0.056-0.111,0.056-0.222,0.112-0.334C23.442,10.747,20.244,4.611,14.748,1.375L14.748,1.375z"></path><path fill="#CB442F" d="M23.61,22.518L23.61,22.518L23.61,22.518L23.61,22.518z M2.355,4.499C2.693,5.112,3.197,5.726,3.701,6.34c2.58,3.292,5.945,7.308,9.983,10.375c-1.452,0.879-3.194,1.34-5.085,1.34c-1.834,0-3.808-0.433-5.796-1.34C1.794,16.27,0.954,15.712,0,15.042c1.682,2.622,4.318,5.021,7.459,6.304c1.845,0.795,3.704,1.173,5.443,1.173c1.802,0,3.477-0.406,4.875-1.173h0.057c0.112-0.056,0.225-0.111,0.336-0.223c0.604-0.301,1.469-0.613,2.37-0.613c0.363,0,0.731,0.051,1.091,0.173l-9.518-8.821l0,0l0,0C10.375,10.859,5.44,7.345,2.355,4.499L2.355,4.499z"></path></svg>