<svg width="148" height="166" viewBox="0 0 148 166" fill="none" xmlns="http://www.w3.org/2000/svg">
<g clip-path="url(#clip0_12_771)">
<path d="M50.7001 100.718C56.3956 100.718 61.0128 105.335 61.0128 111.031V155.27C61.0128 160.965 56.3956 165.581 50.7001 165.581C45.0054 165.581 40.3882 160.965 40.3882 155.27V111.031C40.3882 105.336 45.0054 100.719 50.7001 100.719V100.718Z" fill="#A4C639"/>
<path d="M27.1572 47.5312C27.1231 47.9223 27.0934 48.3177 27.0934 48.7174V115.743C27.0934 122.951 32.7991 128.758 39.882 128.758H108.042C115.126 128.758 120.832 122.95 120.832 115.743V48.7174C120.832 48.3177 120.817 47.9208 120.784 47.5312H27.1572Z" fill="#A4C639"/>
<path d="M97.2256 100.718C102.921 100.718 107.538 105.335 107.538 111.031V155.269C107.538 160.965 102.921 165.581 97.2256 165.581C91.5309 165.581 86.9137 160.965 86.9137 155.269V111.031C86.9137 105.336 91.5309 100.719 97.2256 100.719V100.718ZM10.5241 53.496C16.2188 53.496 20.836 58.1132 20.836 63.8087V108.047C20.836 113.743 16.2188 118.36 10.5241 118.36C4.82859 118.36 0.21138 113.743 0.21138 108.048V63.8094C0.210656 58.1139 4.82786 53.496 10.5241 53.496ZM137.402 53.496C143.097 53.496 147.714 58.1132 147.714 63.8087V108.047C147.714 113.743 143.097 118.36 137.402 118.36C131.707 118.36 127.09 113.743 127.09 108.048V63.8094C127.09 58.1139 131.707 53.496 137.402 53.496ZM27.4584 43.1283C27.7452 22.5406 45.7144 5.66052 68.7801 3.43591H79.1442C102.211 5.66124 120.179 22.542 120.466 43.1283H27.4584Z" fill="#A4C639"/>
<path d="M31.0451 1.44873L41.9234 20.2912M116.881 1.44873L106.002 20.2912" stroke="#A4C639" stroke-width="2.17246" stroke-linecap="round" stroke-linejoin="round"/>
<path d="M60.1091 24.6782C60.1178 27.5559 57.736 29.8957 54.7887 29.9037C51.8428 29.9109 49.4473 27.5849 49.4386 24.7071V24.6782C49.4307 21.7996 51.8124 19.4606 54.759 19.4527C57.7049 19.4447 60.1004 21.7699 60.1091 24.6492V24.6782ZM99.9347 24.6782C99.9434 27.5559 97.5616 29.8957 94.6143 29.9037C91.6684 29.9109 89.2729 27.5849 89.2643 24.7071V24.6782C89.2563 21.7996 91.638 19.4606 94.5846 19.4527C97.5305 19.4447 99.926 21.7699 99.9347 24.6492V24.6782Z" fill="white"/>
</g>
<defs>
<clipPath id="clip0_12_771">
<rect width="147.508" height="165.219" fill="white" transform="translate(0.208572 0.362549)"/>
</clipPath>
</defs>
</svg>
