<svg width="719" height="719" viewBox="0 0 719 719" fill="none" xmlns="http://www.w3.org/2000/svg">
<path d="M674.336 76.4008H44.6643C36.6349 76.4008 28.9341 79.5894 23.2551 85.2657C17.5762 90.942 14.3838 98.6413 14.38 106.671V498.842C14.38 515.566 27.9403 529.126 44.6643 529.126H674.336C682.368 529.126 690.071 525.936 695.75 520.256C701.429 514.577 704.62 506.874 704.62 498.842V106.699C704.62 98.6675 701.429 90.9646 695.75 85.2852C690.071 79.6058 682.368 76.4008 674.336 76.4008Z" fill="#E7E3E6"/>
<path d="M52.6594 112.667H666.355V454.177H52.6594V112.667Z" fill="#656766"/>
<path d="M359.486 112.667H666.341V283.415H359.486V112.667Z" fill="#806292"/>
<path d="M359.486 283.415H666.341V454.163H359.486V283.415Z" fill="#4E4C4D"/>
<path d="M52.6594 112.667H359.514V283.415H52.6594V112.667ZM52.6594 283.415H359.514V454.163H52.6594V283.415Z" fill="#656766"/>
<path d="M571.548 194.374L553.961 176.787C553.479 176.305 552.908 175.923 552.278 175.663C551.649 175.402 550.975 175.268 550.294 175.268C549.613 175.268 548.939 175.402 548.309 175.663C547.68 175.923 547.109 176.305 546.627 176.787C546.145 177.268 545.763 177.84 545.503 178.469C545.242 179.098 545.108 179.773 545.108 180.454C545.108 181.135 545.242 181.809 545.503 182.438C545.763 183.067 546.145 183.639 546.627 184.121L560.561 198.04L546.641 211.96C546.16 212.442 545.778 213.013 545.517 213.643C545.257 214.272 545.123 214.946 545.123 215.627C545.123 216.308 545.257 216.983 545.517 217.612C545.778 218.241 546.16 218.813 546.641 219.294C547.123 219.776 547.695 220.158 548.324 220.418C548.953 220.679 549.627 220.813 550.308 220.813C550.989 220.813 551.664 220.679 552.293 220.418C552.922 220.158 553.494 219.776 553.975 219.294L571.548 201.693C572.03 201.212 572.413 200.641 572.674 200.011C572.936 199.382 573.07 198.707 573.07 198.026C573.07 197.345 572.936 196.67 572.674 196.041C572.413 195.412 572.03 194.84 571.548 194.359V194.374ZM482.636 176.787C482.155 176.304 481.584 175.921 480.954 175.66C480.325 175.399 479.65 175.264 478.969 175.264C478.288 175.264 477.613 175.399 476.984 175.66C476.355 175.921 475.783 176.304 475.302 176.787L457.715 194.374C457.233 194.854 456.85 195.426 456.589 196.055C456.327 196.684 456.193 197.359 456.193 198.04C456.193 198.722 456.327 199.396 456.589 200.026C456.85 200.655 457.233 201.226 457.715 201.707L475.317 219.28C475.798 219.762 476.369 220.145 476.998 220.407C477.628 220.668 478.302 220.802 478.983 220.802C479.665 220.802 480.34 220.668 480.969 220.407C481.598 220.145 482.169 219.762 482.65 219.28C483.133 218.799 483.516 218.227 483.777 217.598C484.039 216.969 484.173 216.294 484.173 215.613C484.173 214.931 484.039 214.257 483.777 213.628C483.516 212.998 483.133 212.427 482.65 211.946L468.702 198.04L482.65 184.121C483.133 183.64 483.516 183.068 483.777 182.439C484.039 181.81 484.173 181.135 484.173 180.454C484.173 179.772 484.039 179.098 483.777 178.468C483.516 177.839 483.119 177.268 482.636 176.787ZM534.131 160.02C532.906 159.395 531.483 159.28 530.174 159.7C528.864 160.12 527.774 161.042 527.142 162.263L492.903 229.072C492.307 230.293 492.213 231.699 492.642 232.988C493.07 234.277 493.987 235.346 495.195 235.967C496.403 236.588 497.806 236.711 499.104 236.309C500.401 235.907 501.49 235.013 502.135 233.818L536.388 167.008C536.699 166.401 536.888 165.739 536.942 165.059C536.997 164.379 536.917 163.695 536.708 163.046C536.498 162.397 536.163 161.796 535.72 161.277C535.278 160.757 534.738 160.33 534.131 160.02Z" fill="white"/>
<path d="M526.596 322.111H434.004C432.629 322.111 431.31 321.565 430.338 320.593C429.366 319.621 428.82 318.302 428.82 316.927C428.82 315.552 429.366 314.234 430.338 313.262C431.31 312.29 432.629 311.743 434.004 311.743H526.611C527.291 311.743 527.964 311.877 528.592 312.137C529.22 312.398 529.791 312.779 530.271 313.26C530.752 313.74 531.133 314.311 531.394 314.939C531.654 315.567 531.788 316.24 531.788 316.92C531.788 317.6 531.654 318.273 531.394 318.901C531.133 319.529 530.752 320.1 530.271 320.581C529.791 321.061 529.22 321.443 528.592 321.703C527.964 321.963 527.291 322.097 526.611 322.097L526.596 322.111Z" fill="#85BD57"/>
<path d="M595.261 322.111H553.746C552.371 322.111 551.052 321.565 550.08 320.593C549.108 319.621 548.562 318.302 548.562 316.927C548.562 315.552 549.108 314.234 550.08 313.262C551.052 312.29 552.371 311.743 553.746 311.743H595.261C595.941 311.743 596.614 311.877 597.242 312.137C597.87 312.398 598.441 312.779 598.921 313.26C599.402 313.74 599.783 314.311 600.044 314.939C600.304 315.567 600.438 316.24 600.438 316.92C600.438 317.6 600.304 318.273 600.044 318.901C599.783 319.529 599.402 320.1 598.921 320.581C598.441 321.061 597.87 321.443 597.242 321.703C596.614 321.963 595.941 322.111 595.261 322.111ZM476.683 348.039H434.003C432.63 348.039 431.314 347.493 430.343 346.522C429.372 345.551 428.827 344.235 428.827 342.862C428.827 341.489 429.372 340.172 430.343 339.201C431.314 338.23 432.63 337.685 434.003 337.685H476.683C478.056 337.685 479.373 338.23 480.344 339.201C481.315 340.172 481.86 341.489 481.86 342.862C481.86 344.235 481.315 345.551 480.344 346.522C479.373 347.493 478.056 348.039 476.683 348.039Z" fill="#E7E3E6"/>
<path d="M595.26 348.038H503.818C502.445 348.038 501.128 347.493 500.157 346.522C499.187 345.551 498.641 344.234 498.641 342.861C498.641 341.488 499.187 340.171 500.157 339.201C501.128 338.23 502.445 337.684 503.818 337.684H595.275C596.648 337.684 597.965 338.23 598.935 339.201C599.906 340.171 600.452 341.488 600.452 342.861C600.452 344.234 599.906 345.551 598.935 346.522C597.965 347.493 596.633 348.038 595.26 348.038Z" fill="#53B1E2"/>
<path d="M449.548 373.979H434.018C432.643 373.979 431.324 373.433 430.352 372.461C429.38 371.489 428.834 370.17 428.834 368.795C428.834 367.42 429.38 366.102 430.352 365.129C431.324 364.157 432.643 363.611 434.018 363.611H449.548C450.923 363.611 452.241 364.157 453.214 365.129C454.186 366.102 454.732 367.42 454.732 368.795C454.732 370.17 454.186 371.489 453.214 372.461C452.241 373.433 450.923 373.979 449.548 373.979Z" fill="#BA8C5C"/>
<path d="M595.261 373.979H476.698C475.323 373.979 474.004 373.433 473.032 372.461C472.06 371.489 471.514 370.17 471.514 368.795C471.514 367.42 472.06 366.102 473.032 365.129C474.004 364.157 475.323 363.611 476.698 363.611H595.275C596.65 363.611 597.969 364.157 598.941 365.129C599.913 366.102 600.459 367.42 600.459 368.795C600.459 370.17 599.913 371.489 598.941 372.461C597.969 373.433 596.636 373.979 595.261 373.979Z" fill="#E7E3E6"/>
<path d="M522.397 399.909H434.003C432.63 399.909 431.314 399.364 430.343 398.393C429.372 397.422 428.827 396.105 428.827 394.732C428.827 393.359 429.372 392.043 430.343 391.072C431.314 390.101 432.63 389.555 434.003 389.555H522.397C523.77 389.555 525.087 390.101 526.058 391.072C527.029 392.043 527.574 393.359 527.574 394.732C527.574 396.105 527.029 397.422 526.058 398.393C525.087 399.364 523.77 399.909 522.397 399.909Z" fill="#FFC966"/>
<path d="M595.26 399.909H549.531C548.158 399.909 546.842 399.364 545.871 398.393C544.9 397.422 544.355 396.105 544.355 394.732C544.355 393.359 544.9 392.043 545.871 391.072C546.842 390.101 548.158 389.555 549.531 389.555H595.26C596.633 389.555 597.95 390.101 598.92 391.072C599.891 392.043 600.437 393.359 600.437 394.732C600.437 396.105 599.891 397.422 598.92 398.393C597.95 399.364 596.633 399.909 595.26 399.909Z" fill="#9A7CA8"/>
<path d="M480.307 425.85H434.004C432.629 425.85 431.31 425.304 430.338 424.332C429.366 423.36 428.82 422.041 428.82 420.666C428.82 419.292 429.366 417.973 430.338 417.001C431.31 416.029 432.629 415.482 434.004 415.482H480.307C481.68 415.482 482.997 416.028 483.968 416.999C484.939 417.97 485.484 419.286 485.484 420.659C485.484 422.032 484.939 423.349 483.968 424.32C482.997 425.291 481.68 425.85 480.307 425.85ZM595.261 425.85H507.471C506.096 425.85 504.778 425.304 503.805 424.332C502.833 423.36 502.287 422.041 502.287 420.666C502.287 419.292 502.833 417.973 503.805 417.001C504.778 416.029 506.096 415.482 507.471 415.482H595.275C596.648 415.482 597.965 416.028 598.936 416.999C599.907 417.97 600.452 419.286 600.452 420.659C600.452 422.032 599.907 423.349 598.936 424.32C597.965 425.291 596.648 425.836 595.275 425.836L595.261 425.85Z" fill="#E7E3E6"/>
<path d="M106.225 135.171H83.5765C73.9419 135.171 66.1335 142.979 66.1335 152.614V414.215C66.1335 423.849 73.9419 431.657 83.5765 431.657H106.225C115.86 431.657 123.668 423.849 123.668 414.215V152.614C123.668 142.979 115.86 135.171 106.225 135.171Z" fill="#4E4C4D"/>
<path d="M104.255 147.827H85.5466C83.4401 147.827 81.4196 148.663 79.9287 150.151C78.4378 151.639 77.5983 153.658 77.5945 155.765V174.473C77.5945 178.859 81.1463 182.425 85.5466 182.425H104.241C106.35 182.425 108.372 181.588 109.864 180.096C111.355 178.605 112.193 176.582 112.193 174.473V155.765C112.193 153.658 111.357 151.638 109.869 150.147C108.381 148.656 106.362 147.831 104.255 147.827ZM104.255 195.137H85.5466C83.4376 195.137 81.4149 195.975 79.9236 197.466C78.4323 198.958 77.5945 200.98 77.5945 203.089V221.783C77.5945 226.184 81.1463 229.736 85.5466 229.736H104.241C106.347 229.736 108.368 228.9 109.859 227.412C111.349 225.923 112.189 223.904 112.193 221.798V203.089C112.193 200.983 111.357 198.962 109.869 197.472C108.381 195.981 106.362 195.141 104.255 195.137ZM104.255 242.448H85.5466C83.4376 242.448 81.4149 243.285 79.9236 244.777C78.4323 246.268 77.5945 248.291 77.5945 250.4V269.108C77.5945 273.508 81.1463 277.06 85.5466 277.06H104.241C106.35 277.06 108.372 276.222 109.864 274.731C111.355 273.24 112.193 271.217 112.193 269.108V250.414C112.193 248.307 111.357 246.287 109.869 244.796C108.381 243.305 106.362 242.451 104.255 242.448ZM104.255 289.772H85.5466C83.4376 289.772 81.4149 290.61 79.9236 292.101C78.4323 293.593 77.5945 295.615 77.5945 297.724V316.433C77.5945 320.819 81.1463 324.385 85.5466 324.385H104.241C106.35 324.385 108.372 323.547 109.864 322.056C111.355 320.564 112.193 318.542 112.193 316.433V297.724C112.193 295.618 111.357 293.597 109.869 292.106C108.381 290.615 106.362 289.776 104.255 289.772ZM104.255 337.082H85.5466C83.4376 337.082 81.4149 337.92 79.9236 339.411C78.4323 340.903 77.5945 342.925 77.5945 345.034V363.757C77.5945 368.143 81.1463 371.695 85.5466 371.695H104.241C106.347 371.695 108.368 370.859 109.859 369.371C111.349 367.883 112.189 365.864 112.193 363.757V345.034C112.189 342.93 111.351 340.914 109.864 339.426C108.376 337.938 106.359 337.086 104.255 337.082ZM104.255 384.421H85.5466C83.4401 384.421 81.4196 385.257 79.9287 386.745C78.4378 388.234 77.5983 390.252 77.5945 392.359V411.067C77.5945 415.468 81.1463 419.02 85.5466 419.02H104.241C105.285 419.02 106.319 418.814 107.284 418.414C108.249 418.015 109.125 417.429 109.864 416.69C110.602 415.952 111.188 415.075 111.587 414.111C111.987 413.146 112.193 412.112 112.193 411.067V392.359C112.189 390.255 111.351 388.238 109.864 386.75C108.376 385.263 106.359 384.425 104.255 384.421Z" fill="#D2D2D2"/>
<path d="M285.284 407.674L307.386 385.558C307.972 384.974 308.437 384.28 308.754 383.517C309.071 382.753 309.234 381.934 309.234 381.107C309.234 380.28 309.071 379.461 308.754 378.698C308.437 377.934 307.972 377.24 307.386 376.656L282.15 351.42L304.928 341.986C306.442 341.353 307.717 340.257 308.569 338.854C309.422 337.452 309.808 335.815 309.672 334.179C309.536 332.543 308.886 330.993 307.814 329.75C306.742 328.507 305.303 327.636 303.705 327.261L215.843 306.899C214.559 306.601 213.22 306.636 211.953 306.998C210.685 307.361 209.531 308.041 208.599 308.973C207.667 309.905 206.987 311.059 206.624 312.327C206.262 313.594 206.227 314.933 206.525 316.217L226.902 404.122C227.276 405.72 228.147 407.159 229.39 408.231C230.633 409.303 232.184 409.953 233.82 410.089C235.455 410.225 237.092 409.839 238.495 408.986C239.897 408.134 240.994 406.859 241.627 405.345L251.146 382.423L276.383 407.674C278.828 410.119 282.825 410.119 285.284 407.674Z" fill="#EC6E62"/>
<path d="M230.426 529.111H488.576V591.506H230.426V529.111Z" fill="#D2D2D2"/>
<path d="M503.991 591.507H215.01C208.233 591.507 201.734 594.2 196.942 598.992C192.149 603.784 189.457 610.283 189.457 617.061C189.457 623.838 192.149 630.337 196.942 635.13C201.734 639.922 208.233 642.614 215.01 642.614H503.991C510.768 642.614 517.268 639.922 522.06 635.13C526.852 630.337 529.544 623.838 529.544 617.061C529.544 610.283 526.852 603.784 522.06 598.992C517.268 594.2 510.768 591.507 503.991 591.507Z" fill="#E7E3E6"/>
</svg>
